<?xml version="1.0" standalone="no"?>
<!DOCTYPE svg PUBLIC "-//W3C//DTD SVG 20010904//EN"
 "http://www.w3.org/TR/2001/REC-SVG-20010904/DTD/svg10.dtd">
<svg version="1.0" xmlns="http://www.w3.org/2000/svg"
 width="600.000000pt" height="423.000000pt" viewBox="0 0 600.000000 423.000000"
 preserveAspectRatio="xMidYMid meet">
<metadata>
Created by potrace 1.16, written by Peter Selinger 2001-2019
</metadata>
<g transform="translate(0.000000,423.000000) scale(0.100000,-0.100000)"
fill="#000000" stroke="none">
<path d="M0 2115 l0 -2115 3000 0 3000 0 0 2115 0 2115 -3000 0 -3000 0 0
-2115z m1037 438 c-14 -37 -28 -75 -31 -85 -6 -14 1 -17 47 -20 l55 -3 -5 52
c-12 108 14 148 67 105 17 -14 23 -32 27 -83 4 -42 1 -74 -6 -88 -10 -17 -10
-26 -1 -36 7 -8 22 -40 35 -70 l23 -56 -20 -42 c-41 -85 -88 -117 -174 -117
-52 0 -62 4 -103 38 -57 48 -116 62 -125 29 -3 -12 -6 -33 -6 -47 0 -20 -2
-22 -10 -10 -12 19 -13 101 -1 133 5 13 32 47 60 76 45 46 48 53 31 59 -17 6
-14 14 33 83 29 42 68 109 87 149 35 72 35 73 38 37 2 -20 -8 -66 -21 -104z
m3060 -15 c17 -18 42 -51 55 -73 14 -22 46 -60 72 -85 l46 -45 -28 -14 c-15
-8 -61 -16 -103 -19 l-76 -4 -30 43 c-40 58 -57 112 -50 162 10 72 63 88 114
35z m264 -9 c19 -7 38 -15 42 -19 13 -11 1 -42 -33 -89 l-30 -41 -32 18 c-86
48 -93 141 -12 142 17 0 46 -5 65 -11z m374 -327 c-14 -70 -34 -98 -82 -118
-46 -20 -103 -18 -103 2 0 21 183 202 192 189 3 -6 1 -39 -7 -73z m-4025
-1000 c-12 -37 -24 -73 -26 -79 -4 -9 6 -13 35 -13 l40 0 3 62 c3 68 20 85 51
53 22 -21 32 -97 17 -125 -9 -17 -9 -25 3 -38 8 -9 20 -33 26 -54 19 -58 -17
-126 -82 -153 -56 -23 -84 -19 -132 21 -56 45 -98 45 -104 -1 l-4 -30 -6 30
c-11 55 0 92 40 136 26 29 36 46 29 54 -6 7 2 27 25 59 18 26 49 77 67 112 39
76 48 60 18 -34z"/>
</g>
</svg>
